<?xml version="1.0" encoding="UTF-8"?>
<svg id="_レイヤー_2" data-name="レイヤー 2" xmlns="http://www.w3.org/2000/svg" viewBox="0 0 38.57 70.13">
  <defs>
    <style>
      .cls-1 {
        fill: #6c6c6c;
        stroke-width: 0px;
      }
    </style>
  </defs>
  <g id="_レイヤー_1-2" data-name="レイヤー 1">
    <path class="cls-1" d="M28.74,16.77c4.65,4.04,9.83,9.99,9.83,17.15,0,6.4-2.74,12.73-6.4,18.6h-1.98c1.68-3.51,4.8-9.91,4.8-16.01,0-8.84-6.02-15.86-13.95-17.61v38.27c0,7.93-6.71,12.96-13.95,12.96-3.5,0-7.09-1.91-7.09-5.64,0-5.41,6.94-10.52,13.19-10.52,1.75,0,3.66.38,4.8.99V0h1.91c0,7.32,4.19,12.73,8.84,16.77Z"/>
  </g>
</svg>